<svg xmlns="http://www.w3.org/2000/svg" viewBox="0 0 100 100" width="100" height="100">
  <circle cx="50" cy="50" r="50" fill="#1E1E1D"/>
  <!-- Ears -->
  <polygon points="25,45 15,20 40,35" fill="#FFD551"/>
  <polygon points="75,45 85,20 60,35" fill="#FFD551"/>
  <polygon points="25,45 18,25 35,38" fill="#FFFFFF"/>
  <polygon points="75,45 82,25 65,38" fill="#FFFFFF"/>
  <!-- Face -->
  <polygon points="50,85 20,45 80,45" fill="#FFD551"/>
  <!-- Cheeks/Snout -->
  <path d="M50,85 L20,45 C30,55 45,55 50,55 Z" fill="#FFFFFF"/>
  <path d="M50,85 L80,45 C70,55 55,55 50,55 Z" fill="#FFFFFF"/>
  <!-- Eyes -->
  <circle cx="38" cy="45" r="4" fill="#1E1E1D"/>
  <circle cx="62" cy="45" r="4" fill="#1E1E1D"/>
  <!-- Nose -->
  <polygon points="50,85 46,75 54,75" fill="#1E1E1D"/>
</svg>
