<svg xmlns="http://www.w3.org/2000/svg" viewBox="0 0 100 100" width="100" height="100">
  <circle cx="50" cy="50" r="50" fill="#FFD551"/>
  <!-- Head & Body -->
  <path d="M50,20 C32,20 22,35 22,55 C22,75 35,82 50,82 C65,82 78,75 78,55 C78,35 68,20 50,20 Z" fill="#1E1E1D"/>
  <!-- Eyebrows / Feathers -->
  <polygon points="30,28 45,35 30,38" fill="#FFD551"/>
  <polygon points="70,28 55,35 70,38" fill="#FFD551"/>
  <!-- Big Eyes -->
  <circle cx="36" cy="46" r="10" fill="#FFFFFF"/>
  <circle cx="64" cy="46" r="10" fill="#FFFFFF"/>
  <circle cx="36" cy="46" r="5" fill="#1E1E1D"/>
  <circle cx="64" cy="46" r="5" fill="#1E1E1D"/>
  <circle cx="38" cy="44" r="1.5" fill="#FFFFFF"/>
  <circle cx="66" cy="44" r="1.5" fill="#FFFFFF"/>
  <!-- Beak -->
  <polygon points="50,48 45,58 55,58" fill="#FFD551"/>
  <!-- Breast Feathers -->
  <path d="M42,68 C45,71 48,68 48,68 C48,68 51,71 54,68" stroke="#FFD551" stroke-width="1.5" fill="none"/>
  <path d="M37,73 C40,76 43,73 43,73 C43,73 46,76 49,73 C49,73 52,76 55,73 C55,73 58,76 61,73" stroke="#FFD551" stroke-width="1.5" fill="none"/>
</svg>
