<svg xmlns="http://www.w3.org/2000/svg" viewBox="0 0 100 100" width="100" height="100">
  <circle cx="50" cy="50" r="50" fill="#1E1E1D"/>
  <!-- Ears -->
  <polygon points="22,48 18,22 42,38" fill="#FFFFFF"/>
  <polygon points="78,48 82,22 58,38" fill="#FFFFFF"/>
  <polygon points="22,48 22,28 36,40" fill="#FFD551"/>
  <polygon points="78,48 78,28 64,40" fill="#FFD551"/>
  <!-- Head -->
  <ellipse cx="50" cy="56" rx="28" ry="24" fill="#FFFFFF"/>
  <!-- Eyes (Anime style) -->
  <ellipse cx="40" cy="50" rx="4.5" ry="6" fill="#1E1E1D"/>
  <ellipse cx="60" cy="50" rx="4.5" ry="6" fill="#1E1E1D"/>
  <circle cx="41.5" cy="48" r="1.5" fill="#FFFFFF"/>
  <circle cx="61.5" cy="48" r="1.5" fill="#FFFFFF"/>
  <!-- Blushing Cheeks -->
  <circle cx="32" cy="58" r="3" fill="#FFD551" opacity="0.6"/>
  <circle cx="68" cy="58" r="3" fill="#FFD551" opacity="0.6"/>
  <!-- Nose/Mouth -->
  <polygon points="50,57 47,54 53,54" fill="#FFD551"/>
  <path d="M46,62 Q50,65 54,62" stroke="#1E1E1D" stroke-width="1.5" fill="none"/>
  <!-- Whiskers -->
  <line x1="22" y1="58" x2="12" y2="56" stroke="#1E1E1D" stroke-width="1.5"/>
  <line x1="22" y1="62" x2="14" y2="62" stroke="#1E1E1D" stroke-width="1.5"/>
  <line x1="78" y1="58" x2="88" y2="56" stroke="#1E1E1D" stroke-width="1.5"/>
  <line x1="78" y1="62" x2="86" y2="62" stroke="#1E1E1D" stroke-width="1.5"/>
</svg>
