<svg xmlns="http://www.w3.org/2000/svg" viewBox="0 0 100 100" width="100" height="100">
  <circle cx="50" cy="50" r="50" fill="#1E1E1D"/>
  <!-- Mane -->
  <path d="M50,15 C20,15 15,35 25,60 C35,80 50,85 50,85 C50,85 65,80 75,60 C85,35 80,15 50,15 Z" fill="#FFD551"/>
  <!-- Ears -->
  <circle cx="32" cy="30" r="8" fill="#1E1E1D"/>
  <circle cx="68" cy="30" r="8" fill="#1E1E1D"/>
  <!-- Face -->
  <ellipse cx="50" cy="53" rx="22" ry="20" fill="#FFFFFF"/>
  <!-- Eyes -->
  <circle cx="42" cy="48" r="3.5" fill="#1E1E1D"/>
  <circle cx="58" cy="48" r="3.5" fill="#1E1E1D"/>
  <!-- Nose/Snout -->
  <polygon points="50,60 44,52 56,52" fill="#FFD551"/>
  <path d="M50,60 L50,67" stroke="#1E1E1D" stroke-width="2"/>
  <path d="M44,67 C47,69 50,67 50,67 C50,67 53,69 56,67" stroke="#1E1E1D" stroke-width="1.5" fill="none"/>
</svg>
