<svg xmlns="http://www.w3.org/2000/svg" viewBox="0 0 100 100" width="100" height="100">
  <circle cx="50" cy="50" r="50" fill="#1E1E1D"/>
  <!-- Ears -->
  <circle cx="30" cy="35" r="10" fill="#FFD551"/>
  <circle cx="70" cy="35" r="10" fill="#FFD551"/>
  <circle cx="30" cy="35" r="6" fill="#1E1E1D"/>
  <circle cx="70" cy="35" r="6" fill="#1E1E1D"/>
  <!-- Head -->
  <circle cx="50" cy="55" r="30" fill="#FFD551"/>
  <!-- White Snout -->
  <ellipse cx="50" cy="67" rx="14" ry="10" fill="#FFFFFF"/>
  <!-- Tiger Stripes -->
  <polygon points="20,50 30,52 20,54" fill="#1E1E1D"/>
  <polygon points="80,50 70,52 80,54" fill="#1E1E1D"/>
  <polygon points="22,60 32,61 22,62" fill="#1E1E1D"/>
  <polygon points="78,60 68,61 78,62" fill="#1E1E1D"/>
  <polygon points="50,25 48,35 52,35" fill="#1E1E1D"/>
  <!-- Eyes -->
  <circle cx="38" cy="50" r="4" fill="#1E1E1D"/>
  <circle cx="62" cy="50" r="4" fill="#1E1E1D"/>
  <circle cx="39" cy="49" r="1" fill="#FFFFFF"/>
  <circle cx="61" cy="49" r="1" fill="#FFFFFF"/>
  <!-- Nose/Mouth -->
  <polygon points="50,62 46,58 54,58" fill="#1E1E1D"/>
  <path d="M47,68 Q50,71 53,68" stroke="#1E1E1D" stroke-width="1.5" fill="none"/>
</svg>
